<?xml version="1.0" encoding="UTF-8" standalone="no"?>
<svg width="56px" height="56px" viewBox="0 0 56 56" version="1.1" xmlns="http://www.w3.org/2000/svg" xmlns:xlink="http://www.w3.org/1999/xlink">
    <!-- Generator: sketchtool 41.2 (35397) - http://www.bohemiancoding.com/sketch -->
    <title>C4A20C81-ACAE-4CAE-948B-6ADCC0A1F098</title>
    <desc>Created with sketchtool.</desc>
    <defs>
        <path d="M1830,271 C1843.25483,271 1854,260.254834 1854,247 C1854,233.745166 1843.25483,223 1830,223 C1816.74517,223 1806,233.745166 1806,247 C1806,260.254834 1816.74517,271 1830,271 Z M1814.16123,246.317043 C1814.14897,246.344783 1814.13106,246.368696 1814.11974,246.396435 C1814.099,246.44713 1814.08674,246.501652 1814.07166,246.555217 C1814.05751,246.600174 1814.04054,246.644174 1814.03111,246.691043 C1814.02546,246.720696 1814.0264,246.752261 1814.02169,246.78287 C1814.01226,246.853652 1814,246.924435 1814,246.99713 C1814,247.078435 1814.01226,247.155913 1814.02357,247.234348 C1814.02734,247.258261 1814.0264,247.28313 1814.03111,247.306087 C1814.0396,247.347217 1814.05563,247.383565 1814.066,247.422783 C1814.08297,247.482087 1814.09711,247.542348 1814.11974,247.598783 C1814.132,247.627478 1814.14991,247.652348 1814.16311,247.67913 C1814.19329,247.742261 1814.22251,247.805391 1814.26211,247.862783 C1814.31774,247.946957 1814.38091,248.024435 1814.45163,248.095217 L1823.75574,257.537043 C1824.33277,258.124348 1825.34634,258.122435 1825.9196,257.54087 C1826.21,257.248174 1826.37123,256.85887 1826.37123,256.443739 C1826.37217,256.027652 1826.21283,255.635478 1825.92243,255.341826 L1819.22626,248.548609 L1845.03226,248.548609 C1845.87517,248.548609 1846.56251,247.853217 1846.56251,246.99713 C1846.56251,246.141043 1845.87517,245.443739 1845.03226,245.443739 L1819.2272,245.443739 L1825.92243,238.652435 C1826.21283,238.357826 1826.37217,237.967565 1826.37123,237.551478 C1826.37123,237.136348 1826.21094,236.746087 1825.92243,236.455304 C1825.63297,236.161652 1825.24829,236 1824.84003,236 C1824.43083,236 1824.04709,236.161652 1823.75763,236.455304 L1814.44974,245.898087 C1814.38186,245.966 1814.3234,246.040609 1814.2706,246.119043 C1814.22251,246.18887 1814.19234,246.252957 1814.16123,246.317043 Z" id="path-1"></path>
        <filter x="-50%" y="-50%" width="200%" height="200%" filterUnits="objectBoundingBox" id="filter-2">
            <feOffset dx="0" dy="2" in="SourceAlpha" result="shadowOffsetOuter1"></feOffset>
            <feGaussianBlur stdDeviation="2" in="shadowOffsetOuter1" result="shadowBlurOuter1"></feGaussianBlur>
            <feColorMatrix values="0 0 0 0 0   0 0 0 0 0   0 0 0 0 0  0 0 0 0.5 0" type="matrix" in="shadowBlurOuter1"></feColorMatrix>
        </filter>
    </defs>
    <g id="Page-1" stroke="none" stroke-width="1" fill="none" fill-rule="evenodd">
        <g id="W06" transform="translate(-1802.000000, -365.000000)">
            <g id="PICTURES" transform="translate(0.000000, 148.000000)">
                <g id="Active_right" transform="translate(1830.000000, 247.000000) rotate(-180.000000) translate(-1830.000000, -247.000000) ">
                    <use fill="black" fill-opacity="1" filter="url(#filter-2)" xlink:href="#path-1"></use>
                    <use fill="#FFFFFF" fill-rule="evenodd" xlink:href="#path-1"></use>
                </g>
            </g>
        </g>
    </g>
</svg>