<?xml version="1.0" encoding="UTF-8" standalone="no"?>
<svg width="56px" height="56px" viewBox="0 0 56 56" version="1.1" xmlns="http://www.w3.org/2000/svg" xmlns:xlink="http://www.w3.org/1999/xlink">
    <!-- Generator: sketchtool 41.2 (35397) - http://www.bohemiancoding.com/sketch -->
    <title>D7FE300E-8F07-49F7-8708-712EE6920B93</title>
    <desc>Created with sketchtool.</desc>
    <defs>
        <path d="M92,271 C105.254834,271 116,260.254834 116,247 C116,233.745166 105.254834,223 92,223 C78.745166,223 68,233.745166 68,247 C68,260.254834 78.745166,271 92,271 Z M76.1612286,246.317043 C76.1489714,246.344783 76.1310571,246.368696 76.1197429,246.396435 C76.099,246.44713 76.0867429,246.501652 76.0716571,246.555217 C76.0575143,246.600174 76.0405429,246.644174 76.0311143,246.691043 C76.0254571,246.720696 76.0264,246.752261 76.0216857,246.78287 C76.0122571,246.853652 76,246.924435 76,246.99713 C76,247.078435 76.0122571,247.155913 76.0235714,247.234348 C76.0273429,247.258261 76.0264,247.28313 76.0311143,247.306087 C76.0396,247.347217 76.0556286,247.383565 76.066,247.422783 C76.0829714,247.482087 76.0971143,247.542348 76.1197429,247.598783 C76.132,247.627478 76.1499143,247.652348 76.1631143,247.67913 C76.1932857,247.742261 76.2225143,247.805391 76.2621143,247.862783 C76.3177429,247.946957 76.3809143,248.024435 76.4516286,248.095217 L85.7557429,257.537043 C86.3327714,258.124348 87.3463429,258.122435 87.9196,257.54087 C88.21,257.248174 88.3712286,256.85887 88.3712286,256.443739 C88.3721714,256.027652 88.2128286,255.635478 87.9224286,255.341826 L81.2262571,248.548609 L107.032257,248.548609 C107.875171,248.548609 108.562514,247.853217 108.562514,246.99713 C108.562514,246.141043 107.875171,245.443739 107.032257,245.443739 L81.2272,245.443739 L87.9224286,238.652435 C88.2128286,238.357826 88.3721714,237.967565 88.3712286,237.551478 C88.3712286,237.136348 88.2109429,236.746087 87.9224286,236.455304 C87.6329714,236.161652 87.2482857,236 86.8400286,236 C86.4308286,236 86.0470857,236.161652 85.7576286,236.455304 L76.4497429,245.898087 C76.3818571,245.966 76.3234,246.040609 76.2706,246.119043 C76.2225143,246.18887 76.1923429,246.252957 76.1612286,246.317043 Z" id="path-1"></path>
        <filter x="-50%" y="-50%" width="200%" height="200%" filterUnits="objectBoundingBox" id="filter-2">
            <feOffset dx="0" dy="2" in="SourceAlpha" result="shadowOffsetOuter1"></feOffset>
            <feGaussianBlur stdDeviation="2" in="shadowOffsetOuter1" result="shadowBlurOuter1"></feGaussianBlur>
            <feColorMatrix values="0 0 0 0 0   0 0 0 0 0   0 0 0 0 0  0 0 0 0.5 0" type="matrix" in="shadowBlurOuter1"></feColorMatrix>
        </filter>
    </defs>
    <g id="Page-1" stroke="none" stroke-width="1" fill="none" fill-rule="evenodd">
        <g id="W06" transform="translate(-64.000000, -369.000000)">
            <g id="PICTURES" transform="translate(0.000000, 148.000000)">
                <g id="Active_left">
                    <use fill="black" fill-opacity="1" filter="url(#filter-2)" xlink:href="#path-1"></use>
                    <use fill="#FFFFFF" fill-rule="evenodd" xlink:href="#path-1"></use>
                </g>
            </g>
        </g>
    </g>
</svg>