<svg width="75" height="75" viewBox="0 0 75 75" xmlns="http://www.w3.org/2000/svg"><title>Group</title><g transform="translate(2 2)" fill="none" fill-rule="evenodd"><circle stroke="#F2F2F2" stroke-width="4" cx="35.5" cy="35.5" r="35.5"/><g opacity=".053" transform="translate(17.48 18.211)"><ellipse fill="#000" cx="24.906" cy="15.846" rx="2.453" ry="2.446"/><ellipse fill="#000" cx="12.451" cy="15.846" rx="2.453" ry="2.446"/><path d="M18.13 30.593c.431.015.865.006 1.3-.03 3.386-.27 6.572-2.097 8.523-4.887l-1.644-1.142c-1.612 2.306-4.244 3.816-7.04 4.039-3.38.27-6.692-1.317-8.608-4.076l-1.535 1.292a11.658 11.658 0 0 0 9.004 4.804z" stroke="#000" stroke-width=".5" fill="#000"/><path d="M33.424 36.286a2.827 2.827 0 0 0 2.83-2.824V14.576c0-3.131-2.23-3.898-2.23-3.898s2.788-1.454 2.788-5.567c0-3.397-2.683-5.09-5.578-5.01C29.44.149 22.9.658 18.406.658 13.913.658 7.373.149 5.578.1 2.683.02 0 1.714 0 5.11c0 4.113 2.788 5.567 2.788 5.567s-2.23.767-2.23 3.898V33.46a2.828 2.828 0 0 0 2.83 2.825h30.036z" stroke="#000" stroke-width="2.588" stroke-linecap="round" stroke-linejoin="round"/></g></g></svg>