<svg width="24" height="24" viewBox="0 0 24 24" xmlns="http://www.w3.org/2000/svg"><title>icon request</title><g fill="none" fill-rule="evenodd"><ellipse fill="#FFF" cx="15.661" cy="10.702" rx="1.448" ry="1.448"/><path d="M8.03 10.716a1.53 1.53 0 0 1 1.31.704l1.34-.825c-.569-.904-1.56-1.423-2.65-1.423-1.089 0-2.08.519-2.65 1.423l1.342.835a1.54 1.54 0 0 1 1.309-.714z" fill="#FFF"/><path d="M11.701 19.4c.255.01.51.004.767-.017A6.866 6.866 0 0 0 17.5 16.49l-.97-.676a5.672 5.672 0 0 1-4.155 2.392 5.67 5.67 0 0 1-5.08-2.413l-.907.766A6.874 6.874 0 0 0 11.7 19.4z" stroke="#FFF" stroke-width=".5" fill="#FFF"/><path d="M20.729 22.77a1.67 1.67 0 0 0 1.67-1.67V9.918c0-1.854-1.316-2.307-1.316-2.307s1.646-.861 1.646-3.296c0-2.011-1.584-3.013-3.293-2.966-1.06.029-4.92.33-7.572.33s-6.512-.301-7.572-.33C2.584 1.303 1 2.305 1 4.316 1 6.75 2.646 7.612 2.646 7.612s-1.317.453-1.317 2.307v11.18c0 .923.748 1.672 1.671 1.672h17.729z" stroke="#FFF" stroke-width="2.218" stroke-linecap="round" stroke-linejoin="round"/></g></svg>