<svg width="4" height="19" viewBox="0 0 4 19" xmlns="http://www.w3.org/2000/svg"><title>!</title><path d="M1.219 13.033c.015.21.082.377.199.498a.562.562 0 0 0 .82.006c.117-.117.184-.285.2-.504l.644-10.946v-.093c0-.344-.123-.61-.37-.797A1.4 1.4 0 0 0 1.84.916a1.4 1.4 0 0 0-.873.28c-.246.188-.37.454-.37.798v.093l.622 10.946zm.644 5.426c.407 0 .735-.125.985-.375s.375-.547.375-.891c0-.336-.127-.627-.381-.873s-.58-.37-.979-.37c-.406 0-.734.126-.984.376s-.375.539-.375.867c0 .344.125.64.375.89s.578.376.984.376z" fill="#FF6275" fill-rule="evenodd"/></svg>