<svg xmlns="http://www.w3.org/2000/svg" xmlns:xlink="http://www.w3.org/1999/xlink" width="30" height="30" viewBox="0 0 30 30">
    <defs>
        <path id="b" d="M12.56 2.56L8.623 6.5l3.939 3.94a1.5 1.5 0 0 1-2.121 2.12L6.5 8.622l-3.94 3.94c-.292.292-.676.439-1.06.439s-.767-.146-1.06-.44a1.5 1.5 0 0 1 0-2.121l3.938-3.94L.44 2.562A1.5 1.5 0 0 1 2.56.439L6.5 4.38l3.94-3.94a1.5 1.5 0 0 1 2.12 2.122z"/>
        <filter id="a" width="215.4%" height="215.4%" x="-57.7%" y="-57.7%" filterUnits="objectBoundingBox">
            <feOffset in="SourceAlpha" result="shadowOffsetOuter1"/>
            <feGaussianBlur in="shadowOffsetOuter1" result="shadowBlurOuter1" stdDeviation="2.5"/>
            <feColorMatrix in="shadowBlurOuter1" values="0 0 0 0 0 0 0 0 0 0 0 0 0 0 0 0 0 0 0.5 0"/>
        </filter>
    </defs>
    <g fill="none" fill-rule="evenodd" transform="translate(8.5 8.5)">
        <use fill="#000" filter="url(#a)" xlink:href="#b"/>
        <use fill="#0EDC84" xlink:href="#b"/>
    </g>
</svg>
