<svg width="20" height="19" viewBox="0 0 20 19" xmlns="http://www.w3.org/2000/svg"><title>button share</title><g stroke="#DADADA" fill="none" fill-rule="evenodd"><path d="M10.249 1.162a.514.514 0 0 0-.75 0L6.11 4.632a.554.554 0 0 0 0 .774c.209.214.545.214.754 0L9.34 2.865v11.08c0 .304.237.547.533.547a.537.537 0 0 0 .533-.546V2.865l2.48 2.54c.21.215.545.215.754 0a.554.554 0 0 0 0-.772L10.25 1.162z" stroke-width=".516" fill="#DADADA"/><path d="M1.001 11.544v3.132s-.138 2.622 2.603 2.622h12.618s2.614-.055 2.647-2.622c.032-2.567 0-3.23 0-3.23" stroke-width="1.705" stroke-linecap="round" stroke-linejoin="round"/></g></svg>