<svg width="17" height="17" viewBox="0 0 17 17" xmlns="http://www.w3.org/2000/svg"><g fill="#BEBEBE"><path d="M13.5 1.675h-2V1.11c0-.339-.2-.565-.5-.565s-.5.226-.5.565v.565h-5V1.11c0-.339-.2-.565-.5-.565s-.5.226-.5.565v.565h-2C1.1 1.675 0 2.917 0 4.497V14.66c0 1.58 1.1 2.823 2.5 2.823h11c1.4 0 2.5-1.242 2.5-2.823V4.497c0-1.58-1.1-2.822-2.5-2.822zM1 4.497c0-.903.7-1.693 1.5-1.693h2v.564c0 .339.2.565.5.565s.5-.226.5-.565v-.564h5v.564c0 .339.2.565.5.565s.5-.226.5-.565v-.564h2c.8 0 1.5.79 1.5 1.693v1.694H1V4.497zM15 14.66c0 .903-.7 1.694-1.5 1.694h-11c-.8 0-1.5-.79-1.5-1.694V7.32h14v7.34z"/><path d="M4.538 14.66c.347 0 .577-.114.808-.34.23-.225.346-.564.346-.79 0-.226-.115-.565-.346-.79a1.132 1.132 0 0 0-1.615 0c-.231.225-.346.451-.346.79 0 .226.115.565.346.79.23.226.461.34.807.34zM4.538 11.272c.347 0 .577-.113.808-.339.23-.226.346-.565.346-.79 0-.226-.115-.565-.346-.79a1.132 1.132 0 0 0-1.615 0c-.231.225-.346.45-.346.79 0 .338.115.564.346.79.23.226.461.339.807.339zM8 14.66c.346 0 .577-.114.808-.34.23-.225.346-.564.346-.79 0-.226-.116-.565-.346-.79a1.132 1.132 0 0 0-1.616 0c-.23.225-.346.564-.346.79 0 .226.116.565.346.79.231.226.462.34.808.34zM8 11.272c.346 0 .577-.113.808-.339.23-.226.346-.565.346-.79 0-.226-.116-.565-.346-.79a1.132 1.132 0 0 0-1.616 0c-.23.225-.346.564-.346.79 0 .225.116.564.346.79.231.226.462.339.808.339zM11.461 14.66c.347 0 .577-.114.808-.34.23-.225.346-.451.346-.79s-.115-.565-.346-.79a1.132 1.132 0 0 0-1.615 0c-.231.225-.346.564-.346.79 0 .226.115.565.346.79.23.226.461.34.807.34zM11.461 11.272c.347 0 .577-.113.808-.339.23-.226.346-.452.346-.79 0-.226-.115-.565-.346-.79a1.132 1.132 0 0 0-1.615 0c-.231.225-.346.564-.346.79 0 .225.115.564.346.79.23.226.461.339.807.339z"/></g></svg>