<svg xmlns="http://www.w3.org/2000/svg" width="23" height="18" viewBox="0 0 23 18">
    <path fill="#0BB069" fill-rule="evenodd" stroke="#0BB069" stroke-width=".5" d="M1.222 9.012a.986.986 0 0 0 .716.89l7.56 2.244.277 5.119a.51.51 0 0 0 .35.446.516.516 0 0 0 .556-.14l2.672-2.907 3.788 2.576a1.012 1.012 0 0 0 1.562-.616L21.847.884a.502.502 0 0 0-.177-.488.519.519 0 0 0-.522-.079L1.828 8.041a.996.996 0 0 0-.606.971zm9.513 6.983l-.173-3.229 1.936 1.315-1.763 1.914zm6.962.393L10.802 11.7l9.669-9.187-2.774 13.875zm1.713-14.28L9.85 11.19 2.3 8.951l17.11-6.843z"/>
</svg>
