<svg xmlns="http://www.w3.org/2000/svg" viewBox="0 0 20 16.7"><path fill="#EB6852" d="M14.5 0C12.6 0 11 .9 10 2.2 9 .9 7.4 0 5.6 0 2.5 0 0 2.5 0 5.5c0 3.9 3.4 6.4 5.3 7.8 2.3 1.7 2.1 1.6 4.7 3.1 2.6-1.5 2.4-1.3 4.7-3.1C16.6 12 20 9.5 20 5.6 20 2.5 17.5 0 14.5 0z"/><path fill="#FFF" d="M17.3 6.7c-.2 0-.4-.2-.4-.4 0-.8-.2-1.5-.7-2.1-.1-.2-.1-.4.1-.6.2-.1.4-.1.6.1.6.7.9 1.7.9 2.6 0 .2-.2.4-.5.4zM15.2 3.3H15c-.1-.1-.3-.1-.4-.2-.2-.1-.3-.3-.3-.5.1-.2.3-.3.5-.3.2.1.4.1.5.2.2.1.3.4.2.6 0 .1-.1.2-.3.2z"/></svg>