<svg width="40" height="40" xmlns="http://www.w3.org/2000/svg"><g fill="none" fill-rule="evenodd"><path d="M17.74 3.002c.891.003 4.702.014 5.083.023l.53.014c.457.011.973.085 1.338.551.526.672.522 2.043.497 2.777h9.222a2.22 2.22 0 012.207 2.178l.03 3.24c.004.952.004 1.812 0 2.69l-.04 5.601c-.003.585-.006 1.183-.007 1.832a.65.65 0 11-1.3-.004l.014-3.001.033-4.434c.008-1.748 0-3.425-.03-5.909a.922.922 0 00-.796-.886l-.111-.007-27.263-.002-.777-.015-.793.017c-.484 0-.913.42-.908.878l.03 3.156a935.2 935.2 0 01.018 10.168l-.019 3.558-.045 1.588-.004.261v.247c.012 2.707.766 3.843 3.313 3.81l2.077-.023c1.543-.012 2.798-.011 3.765.004l.87.02h4.304a.65.65 0 01.096 1.292l-.096.007h-4.325l-.866-.02c-1.362-.02-3.299-.014-5.808.02-3.333.044-4.555-1.676-4.627-4.862l-.003-.504c.001-.175.005-.357.012-.59l.037-1.264.019-3.548c.016-4.627 0-9.222-.048-13.305-.013-1.192 1.01-2.193 2.208-2.193l.796-.017 1.084.017 6.546.002a15.47 15.47 0 01.055-1.676l.012-.101c.038-.372.088-.835.409-1.159.358-.361.867-.379 1.276-.394l.138-.006a30.718 30.718 0 011.693-.032zm9.548 10.868c1.063 1.383 1.42 3.295 1.355 5.309a.65.65 0 11-1.299-.042c.057-1.74-.252-3.389-1.087-4.475-1.964-2.555-5.563-3.646-8.732-2.645-1.465.492-2.724 1.336-3.548 2.612-.864 1.34-1.338 3.082-1.327 4.901.012 1.735.436 3.31 1.416 4.47.811.958 2.072 1.656 3.767 2.062.562.135 1.104.232 1.625.292a.65.65 0 01-.149 1.292 14.937 14.937 0 01-1.779-.32c-1.946-.466-3.451-1.299-4.456-2.487-1.21-1.431-1.71-3.289-1.724-5.3-.013-2.065.529-4.056 1.534-5.615 1.005-1.556 2.506-2.56 4.238-3.143 3.696-1.168 7.865.096 10.166 3.089zm-2.546 1.764c.725.94.967 2.157.898 3.415.144 3.652-2.842 5.601-5.227 5.601a8.684 8.684 0 01-2.015-.256c-1.263-.3-2.248-.844-2.913-1.626-.799-.942-1.126-2.151-1.135-3.455-.008-1.331.343-2.617.998-3.628.61-.942 1.495-1.573 2.51-1.96l.257-.092.012-.004c2.404-.756 5.114.062 6.615 2.005zm-6.006-.828l-.22.063-.221.08c-.613.24-1.153.588-1.569 1.063l-.15.184-.137.196c-.513.791-.796 1.828-.789 2.912.007 1.027.258 1.952.826 2.622.47.554 1.212.963 2.224 1.204.614.147 1.188.22 1.713.22.424 0 1.439-.298 2.211-.802 1.144-.746 1.78-1.854 1.717-3.508.055-1.036-.13-1.965-.628-2.612-1.12-1.449-3.143-2.102-4.977-1.622zm2.887 3.579l.09.003.09.016a.601.601 0 01.399.33.53.53 0 01-.012.459l-.052.085-1.238 1.704a.587.587 0 01-.386.232l-.095.007-.07-.005a.608.608 0 01-.483-.355.53.53 0 01.022-.453l.053-.083.986-1.352.245-.341a.585.585 0 01.45-.247zm-.437-2.418l.082.05.079.068a.535.535 0 01.104.62l-.053.088-2.696 3.765a.584.584 0 01-.388.243l-.096.007-.052-.003a.606.606 0 01-.492-.344.532.532 0 01.008-.46l.05-.086 2.697-3.765a.588.588 0 01.757-.183zM8.358 9.4c.126 0 .257.002.399.006l.666.024.206.005c.279.01.495.04.708.117.673.24.941.833.932 1.56l-.01.408c-.02.492-.075.795-.224 1.137-.298.68-.854.92-1.662.941h-.252l-.608-.02-.51.01c-1 .008-1.636-.251-1.862-1.136a2.76 2.76 0 01-.066-.855l.023-.278.076-.682v-.017a.852.852 0 01.032-.213c.22-.8.689-.976 1.64-.997l.512-.01zm.005 1.2l-.702.015c-.202.008-.257.022-.282.068l-.008.017-.035.356-.044.381-.007.068c-.026.29-.021.496.018.65.043.166.157.226.56.233l.656-.01.69.022c.472.004.656-.062.726-.223.098-.226.127-.494.134-1.08.003-.233-.034-.348-.1-.396l-.035-.019-.062-.017a1.243 1.243 0 00-.173-.024l-.97-.035c-.13-.004-.251-.006-.366-.006zm19.685-1.184c1.42-.047 3.38-.058 4.8-.01.716.024.717 1.278 0 1.254a81.666 81.666 0 00-4.8.01c-.717.024-.714-1.23 0-1.254zm-10.401-5.22h-.064c-.44-.004-.878.002-1.315.018-.06.002-.141 0-.231-.002-.157-.004-.633-.016-.715.076-.081.128-.09.453-.097.669l-.009.2c-.018.293-.024.858-.017 1.212l8.79-.004c.03-1.067-.041-1.734-.212-2-.09-.143-.328-.15-.662-.142-.086.001-.167.003-.247.001-.428-.015-4.857-.024-5.285-.028z" fill="#333" fill-rule="nonzero"/><path d="M23.109 28.26c-.393 1.307-.533 2.702-.187 4.022.729 2.778 3.62 4.82 6.697 5.236.862.117 1.752.123 2.596-.076 1.405-.331 2.598-1.212 3.492-2.26 1.71-2.009 2.414-4.783 1.558-7.213-.387-1.099-1.245-3.434-4.589-4.594-1.527-.53-4.518-.62-6.47.54-1.953 1.162-2.866 3.575-3.097 4.345" fill="#6D8BFF"/><path d="M29.778 30.597a90.06 90.06 0 00-2.855.016c-.718.024-.715-1.23 0-1.254.606-.02 1.7-.023 2.864-.016.008-1.142.004-2.21-.015-2.806-.024-.718 1.23-.715 1.254 0 .02.598.023 1.67.017 2.816 1.141.013 2.209.033 2.805.053.716.024.717 1.278 0 1.254-.598-.02-1.67-.04-2.815-.052-.013 1.16-.033 2.25-.053 2.855-.025.716-1.279.716-1.254 0 .015-.473.031-1.243.043-2.111z" fill="#FFF"/></g></svg>