<svg width="20" height="660" viewBox="0 0 20 660" xmlns="http://www.w3.org/2000/svg"><title>set_menu</title><g fill="#494949" fill-rule="evenodd"><g fill-rule="nonzero"><path d="M7.644 648.532c.013.02.013.02.034.15a1.73 1.73 0 0 1-.049-.363v-.706c0-.533.43-.969.953-.969h2.772c.523 0 .954.436.954.97v.705c0 .09-.013.18-.038.268a.35.35 0 1 0 .674.19c.042-.15.064-.303.064-.458v-.706c0-.918-.743-1.669-1.654-1.669H8.582c-.91 0-1.653.751-1.653 1.67v.705c0 .157.02.31.062.457.008.037.008.037.023.06-.012-.016-.012-.016-.034-.15a.35.35 0 0 0 .7 0c-.023-.136-.023-.136-.036-.154zM16.452 650.129c1.307.087 2.335 1.194 2.335 2.522v1.68c0 1.39-1.124 2.527-2.501 2.527H3.651c-1.377 0-2.501-1.138-2.501-2.527v-1.68c0-1.352 1.066-2.471 2.377-2.522.039-.004.039-.004.071-.005h12.688a.35.35 0 0 1 .083.01.35.35 0 0 1 .083-.005zm-.166.694H3.651l-.072.003c-.958.038-1.729.847-1.729 1.825v1.68c0 1.005.812 1.827 1.8 1.827h12.636c.989 0 1.8-.822 1.8-1.827v-1.68c0-.96-.743-1.761-1.68-1.824a.352.352 0 0 1-.06-.009.352.352 0 0 1-.06.005z"/><path d="M16.787 650.375v-4.069c0-1.472-1.34-2.656-2.958-2.656H6.171c-1.62 0-2.96 1.184-2.96 2.656v4.057a.35.35 0 0 0 .7 0v-4.057c0-1.065 1.009-1.956 2.26-1.956h7.658c1.25 0 2.258.89 2.258 1.956v4.069a.35.35 0 1 0 .7 0z"/><path d="M4.018 650.276a1.852 1.852 0 0 1 1.733-1.244h8.402c.075 0 .153.004.233.01.848.083 1.46.602 1.582 1.371a.35.35 0 0 0 .691-.11c-.175-1.1-1.054-1.846-2.208-1.957a3.306 3.306 0 0 0-.298-.014H5.751a2.55 2.55 0 0 0-2.393 1.711.35.35 0 1 0 .66.233zM2.94 656.656V659a.35.35 0 1 0 .7 0v-2.344a.35.35 0 1 0-.7 0zM16.36 656.656V659a.35.35 0 0 0 .7 0v-2.344a.35.35 0 1 0-.7 0z"/></g><path d="M9.5 578.08a7.35 7.35 0 1 1 0-14.7 7.35 7.35 0 0 1 0 14.7zm0-.7a6.65 6.65 0 1 0 0-13.3 6.65 6.65 0 0 0 0 13.3z" fill-rule="nonzero"/><path d="M10.012 572.632h-.79v-.885c0-.192.046-.368.138-.528.091-.161.203-.31.334-.45.132-.137.275-.27.428-.398.154-.128.295-.265.423-.411.128-.146.235-.3.323-.464.088-.164.132-.352.132-.565 0-.363-.119-.658-.357-.886-.237-.227-.546-.341-.927-.341-.373 0-.682.107-.927.319-.245.214-.4.495-.466.844l-.823-.097c.044-.277.13-.527.258-.747.128-.22.289-.407.483-.56.193-.152.415-.268.663-.346.249-.078.516-.117.801-.117.293 0 .567.04.823.123.256.081.477.2.664.357.186.156.333.352.439.586.106.235.159.502.159.8 0 .3-.044.552-.132.757a2.037 2.037 0 0 1-.329.54 3.07 3.07 0 0 1-.428.41c-.153.121-.296.25-.428.39a1.912 1.912 0 0 0-.329.473 1.463 1.463 0 0 0-.132.652v.544zM10.276 574.168a.57.57 0 0 1-.165.4.559.559 0 0 1-.428.176.559.559 0 0 1-.427-.176.57.57 0 0 1 0-.8.558.558 0 0 1 .427-.176c.176 0 .319.058.428.176.11.118.165.25.165.4M17.335 488.842c-.273-.041-.552-.08-.831-.116a.082.082 0 0 1-.07-.059 5.877 5.877 0 0 0-.555-1.34.082.082 0 0 1 .008-.091c.171-.223.341-.449.505-.67a.763.763 0 0 0-.075-.988l-.915-.915a.763.763 0 0 0-.988-.075c-.22.164-.446.334-.67.506a.083.083 0 0 1-.09.008 5.877 5.877 0 0 0-1.34-.556.082.082 0 0 1-.06-.07 44.91 44.91 0 0 0-.116-.83.763.763 0 0 0-.75-.646h-1.295a.763.763 0 0 0-.751.646c-.04.271-.08.55-.116.83a.082.082 0 0 1-.059.07 5.88 5.88 0 0 0-1.34.556.083.083 0 0 1-.091-.008 44.572 44.572 0 0 0-.67-.506.763.763 0 0 0-.988.075l-.915.915a.763.763 0 0 0-.075.988c.164.222.335.447.506.67.02.027.024.063.008.09-.24.423-.427.874-.556 1.341a.082.082 0 0 1-.07.059c-.278.036-.558.075-.83.116a.763.763 0 0 0-.646.75v1.295c0 .374.278.696.646.751.272.041.552.08.83.117a.082.082 0 0 1 .07.058c.129.467.316.918.556 1.34a.083.083 0 0 1-.008.092c-.172.223-.342.448-.506.67-.221.299-.189.723.075.987l.915.915a.763.763 0 0 0 .988.075c.22-.163.446-.334.67-.505a.083.083 0 0 1 .09-.008c.423.24.874.426 1.341.555a.082.082 0 0 1 .059.07c.036.28.075.559.116.83a.763.763 0 0 0 .75.646h1.295a.763.763 0 0 0 .751-.645c.041-.273.08-.552.117-.831a.082.082 0 0 1 .058-.07 5.88 5.88 0 0 0 1.34-.555.083.083 0 0 1 .091.007c.224.172.45.342.67.506.3.221.724.19.988-.075l.915-.915a.763.763 0 0 0 .075-.988 45.472 45.472 0 0 0-.506-.67.083.083 0 0 1-.007-.09c.24-.423.426-.874.555-1.34a.082.082 0 0 1 .07-.06c.279-.036.558-.075.83-.116a.763.763 0 0 0 .646-.75v-1.295a.763.763 0 0 0-.645-.751zm-.03 2.045c0 .041-.03.077-.07.083-.268.04-.544.078-.818.114a.757.757 0 0 0-.635.55c-.114.413-.279.812-.491 1.185a.757.757 0 0 0 .06.838c.169.22.336.442.497.66a.083.083 0 0 1-.009.107l-.915.915a.083.083 0 0 1-.107.01c-.218-.162-.44-.329-.66-.498a.757.757 0 0 0-.838-.06 5.203 5.203 0 0 1-1.186.491.757.757 0 0 0-.549.635c-.036.275-.074.55-.114.818a.083.083 0 0 1-.083.07h-1.294a.083.083 0 0 1-.082-.07c-.04-.268-.079-.543-.115-.818a.757.757 0 0 0-.55-.635 5.201 5.201 0 0 1-1.185-.491.755.755 0 0 0-.838.06c-.22.169-.442.337-.66.498a.083.083 0 0 1-.107-.01l-.915-.915a.083.083 0 0 1-.01-.107c.162-.218.33-.44.499-.66a.757.757 0 0 0 .06-.837 5.202 5.202 0 0 1-.492-1.186.757.757 0 0 0-.634-.55c-.275-.035-.55-.074-.818-.114a.083.083 0 0 1-.07-.082v-1.295c0-.041.03-.076.07-.082.268-.04.543-.079.818-.115a.757.757 0 0 0 .634-.55 5.2 5.2 0 0 1 .491-1.185.757.757 0 0 0-.06-.837c-.168-.22-.335-.442-.497-.66a.083.083 0 0 1 .009-.108l.915-.915a.083.083 0 0 1 .108-.01c.217.162.44.33.66.499.243.187.571.21.837.06a5.202 5.202 0 0 1 1.186-.492.757.757 0 0 0 .55-.634c.035-.275.073-.55.114-.818a.083.083 0 0 1 .082-.07h1.294c.041 0 .077.03.083.07a44 44 0 0 1 .114.818c.04.304.256.553.55.634.413.114.812.28 1.185.492.266.15.595.127.838-.06.22-.17.442-.337.66-.498a.083.083 0 0 1 .107.01l.915.914a.083.083 0 0 1 .01.108c-.162.218-.33.44-.498.66a.757.757 0 0 0-.06.837c.212.373.377.772.491 1.186.081.294.33.51.635.55.274.035.55.073.818.114.04.006.07.04.07.082v1.294z"/><path d="M10.74 486.747a3.497 3.497 0 0 1 3.493 3.493 3.497 3.497 0 0 1-3.493 3.493 3.497 3.497 0 0 1-3.493-3.493 3.497 3.497 0 0 1 3.493-3.493zm0 .7a2.797 2.797 0 0 0-2.793 2.793 2.797 2.797 0 0 0 2.793 2.793 2.797 2.797 0 0 0 2.793-2.793 2.797 2.797 0 0 0-2.793-2.793z" fill-rule="nonzero"/><g fill-rule="nonzero"><path d="M17.378 418.24a.79.79 0 0 0 1.136-.877.794.794 0 0 0-.095-.24l-.5-1.246c.4-.691.615-1.478.615-2.296 0-2.515-2.016-4.556-4.504-4.556h-.045l-.03.002h-.038l.013.7h.048l.052-.002c2.1 0 3.804 1.725 3.804 3.856 0 .746-.21 1.46-.6 2.077l-.096.152.656 1.624a.44.44 0 0 1 .037.077c.003.078-.04.121-.09.121a.11.11 0 0 1-.046-.014l-1.567-.654-.155-.064-.147.08a3.742 3.742 0 0 1-1.796.456c-1.849 0-3.421-1.347-3.743-3.172l-.69.121c.38 2.157 2.241 3.751 4.433 3.751.696 0 1.37-.16 1.98-.463l1.368.567z"/><path d="M2.15 408.738c0-3.361 2.693-6.088 6.018-6.088 3.324 0 6.018 2.727 6.018 6.088 0 .189-.01.379-.027.573-.228 2.46-1.911 4.532-4.228 5.25a5.954 5.954 0 0 1-1.763.265 5.938 5.938 0 0 1-2.98-.798l-1.598.657a.941.941 0 0 1-.492.141.951.951 0 0 1-.834-1.399l.676-1.673a6.115 6.115 0 0 1-.79-3.016zm6.018-5.388c-2.936 0-5.318 2.411-5.318 5.388 0 1.005.272 1.969.778 2.807l.09.15-.065.162-.765 1.881a.257.257 0 0 0-.038.133c0 .142.112.255.248.255a.247.247 0 0 0 .052-.006.494.494 0 0 0 .122-.056l1.976-.818.152.094a5.24 5.24 0 0 0 2.768.786c.533 0 1.055-.08 1.556-.235 2.047-.633 3.536-2.467 3.738-4.644.016-.173.024-.342.024-.509 0-2.977-2.382-5.388-5.318-5.388z"/></g><path d="M1.674 330.81a.748.748 0 0 0 .506.685l5.34 1.729.196 3.941a.388.388 0 0 0 .247.344c.038.016.08.023.119.023a.351.351 0 0 0 .273-.131l1.888-2.238 2.676 1.983a.67.67 0 0 0 .404.137c.336 0 .628-.254.7-.611l2.22-12.12a.406.406 0 0 0-.125-.377.342.342 0 0 0-.368-.06l-13.648 5.947a.775.775 0 0 0-.428.748zm6.72 5.378l-.122-2.487 1.368 1.013-1.246 1.474zm4.918.302l-4.87-3.61 6.829-7.074-1.96 10.684zm1.21-10.997l-6.753 6.995-5.334-1.725 12.087-5.27z"/><g fill-rule="nonzero"><path d="M9.576 243.35v11a.35.35 0 1 0 .7 0v-11a.35.35 0 0 0-.7 0z"/><path d="M7.368 251.297a.35.35 0 1 0-.495.494l2.806 2.806a.35.35 0 0 0 .495 0l2.806-2.806a.35.35 0 0 0-.495-.494l-2.559 2.558-2.558-2.558z"/><path d="M1.701 251.956v2.651c-.01.362.057.815.276 1.264.398.813 1.176 1.306 2.367 1.306h11.115c.345-.007.83-.093 1.321-.337.83-.41 1.345-1.144 1.36-2.228.016-1.21.016-2.025.006-2.52a8.809 8.809 0 0 0-.006-.238.35.35 0 1 0-.7.036c.002.028.004.096.007.215.01.487.01 1.294-.007 2.498-.01.806-.365 1.31-.97 1.61a2.65 2.65 0 0 1-.708.228 2.196 2.196 0 0 1-.31.036H4.344c-.922 0-1.457-.339-1.738-.913a2.059 2.059 0 0 1-.206-.933l.001-2.675a.35.35 0 0 0-.7 0z"/></g><g><path d="M16.457 176.616c-.054.185-.247.317-.475.317H13.07c.018-.042.046-.077.059-.122.05-.17.059-.353.025-.54a5.463 5.463 0 0 0-2.437-3.65 4.51 4.51 0 0 1 1.12-.147h.037c2.26 0 4.19 1.663 4.59 3.92a.485.485 0 0 1-.007.222zm-8.764.317h-4c-.23 0-.422-.132-.475-.317a.481.481 0 0 1-.01-.222c.402-2.257 2.332-3.92 4.597-3.92h.069c.375 0 .734.06 1.085.146a4.747 4.747 0 0 1 3.506 3.773.485.485 0 0 1-.008.223c-.054.185-.247.317-.475.317h-4.29zm9.46-.662c-.458-2.588-2.676-4.498-5.28-4.498l-.038.001h-.033c-.692 0-1.353.142-1.965.388a5.246 5.246 0 0 0-1.964-.389l-.038.001h-.033c-2.605 0-4.823 1.91-5.282 4.497-.033.187-.024.37.025.54.145.498.62.822 1.148.822h12.289c.527 0 1.002-.324 1.147-.822.05-.17.059-.353.025-.54zM11.844 170.433a2.664 2.664 0 0 1-1.471-.449 3.602 3.602 0 0 0 0-4.835 2.664 2.664 0 0 1 1.47-.449c1.522 0 2.76 1.281 2.76 2.867 0 1.585-1.238 2.866-2.76 2.866m-2.528-.449a2.664 2.664 0 0 1-1.471.449c-1.521 0-2.76-1.281-2.76-2.866 0-1.586 1.239-2.867 2.76-2.867.542 0 1.044.168 1.47.449.195.128.372.28.53.453.467.513.759 1.201.759 1.965a2.908 2.908 0 0 1-1.288 2.417M11.844 164c-.748 0-1.435.25-2 .665a3.363 3.363 0 0 0-2-.665c-1.913 0-3.46 1.599-3.46 3.567 0 1.967 1.547 3.566 3.46 3.566.748 0 1.435-.25 2-.665a3.363 3.363 0 0 0 2 .665c1.913 0 3.459-1.599 3.459-3.566 0-1.968-1.546-3.567-3.46-3.567"/></g><g fill-rule="nonzero"><path d="M7.066 86.742c.41-.43.963-.673 1.557-.673 1.208 0 2.19 1.008 2.19 2.256a.35.35 0 0 0 .7 0c0-1.631-1.292-2.956-2.89-2.956-.788 0-1.523.324-2.063.89a.35.35 0 0 0 .506.483z"/><path d="M13.366 88.324c0-2.655-2.096-4.804-4.676-4.804s-4.674 2.149-4.674 4.804c0 2.656 2.095 4.805 4.674 4.805 2.58 0 4.676-2.149 4.676-4.805zm.7 0c0 3.039-2.405 5.505-5.376 5.505-2.97 0-5.374-2.466-5.374-5.505 0-3.038 2.404-5.504 5.374-5.504 2.971 0 5.376 2.466 5.376 5.504z"/><path d="M10.976 92.612l4.17 4.231a1.56 1.56 0 0 0 2.166.005 1.474 1.474 0 0 0 0-2.125l-4.134-3.764-.471.517 4.125 3.757a.772.772 0 0 1-.008 1.113.858.858 0 0 1-1.184 0l-4.165-4.225-.499.491z"/></g><g fill-rule="nonzero"><path d="M12.717 6.566c0-1.585-1.237-2.866-2.758-2.866S7.2 4.98 7.2 6.566s1.238 2.867 2.759 2.867c1.52 0 2.758-1.28 2.758-2.867zm.7 0c0 1.968-1.545 3.567-3.458 3.567-1.913 0-3.459-1.6-3.459-3.567S8.046 3 9.959 3s3.458 1.6 3.458 3.566zM15.154 15.498c.033.187.024.37-.025.54-.145.498-.62.822-1.148.822H5.693c-.528 0-1.004-.324-1.148-.822a1.179 1.179 0 0 1-.025-.54C4.979 12.911 7.197 11 9.802 11h.07c2.605 0 4.823 1.91 5.282 4.498zm-9.945.123a.481.481 0 0 0 .008.222c.054.185.247.317.476.317h8.288c.229 0 .422-.132.476-.317a.488.488 0 0 0 .008-.223c-.4-2.256-2.33-3.92-4.591-3.92l-.037.001h-.033c-2.265 0-4.195 1.663-4.595 3.92z"/></g></g></svg>