<svg width="79" height="32" viewBox="0 0 79 32" xmlns="http://www.w3.org/2000/svg"><title>Group Copy</title><g fill="none" fill-rule="evenodd" stroke-width=".5"><g stroke="#D8D8D8" fill="#D8D8D8"><path d="M23.507 9.886l-3.66 1.733.552-3.943-2.815-2.872 4.002-.704L23.507.593 25.428 4.1l4.002.704-2.814 2.872.552 3.943zM6.923 9.886l-3.66 1.733.552-3.943L1 4.804 5.002 4.1 6.922.593 8.845 4.1l4.002.704-2.815 2.872.553 3.943zM39.302 9.886l-3.66 1.733.551-3.943-2.814-2.872L37.38 4.1 39.3.593 41.224 4.1l4.002.704-2.815 2.872.552 3.943zM55.886 9.886l-3.66 1.733.552-3.943-2.815-2.872 4.002-.704L55.886.593 57.807 4.1l4.002.704-2.815 2.872.553 3.943zM72.063 9.293l-3.66 1.733.552-3.943-2.815-2.872 4.002-.704L72.063 0l1.921 3.507 4.002.704-2.815 2.872.553 3.943z"/></g><g stroke="#FEC059" fill="#FEC059"><path d="M23.507 29.886l-3.66 1.733.552-3.943-2.815-2.872 4.002-.704 1.921-3.507 1.921 3.507 4.002.704-2.814 2.872.552 3.943zM6.923 29.886l-3.66 1.733.552-3.943L1 24.804l4.002-.704 1.92-3.507L8.845 24.1l4.002.704-2.815 2.872.553 3.943zM39.302 29.886l-3.66 1.733.551-3.943-2.814-2.872 4.002-.704 1.92-3.507 1.922 3.507 4.002.704-2.815 2.872.552 3.943zM55.886 29.886l-3.66 1.733.552-3.943-2.815-2.872 4.002-.704 1.921-3.507 1.921 3.507 4.002.704-2.815 2.872.553 3.943zM72.063 29.293l-3.66 1.733.552-3.943-2.815-2.872 4.002-.704L72.063 20l1.921 3.507 4.002.704-2.815 2.872.553 3.943z"/></g></g></svg>