<?xml version="1.0" encoding="UTF-8"?>
<svg width="10px" height="10px" viewBox="0 0 10 10" version="1.1" xmlns="http://www.w3.org/2000/svg" xmlns:xlink="http://www.w3.org/1999/xlink">
    <g id="Desktop" stroke="none" stroke-width="1" fill="none" fill-rule="evenodd">
        <g id="Desktop/Profile/Edit-filled" transform="translate(-654.000000, -319.000000)" fill="#FFFFFF" fill-rule="nonzero">
            <path d="M659.444093,327.710898 C659.222697,327.594504 658.777294,327.594511 658.555911,327.710898 L657.170004,328.439513 C656.236555,328.930256 655.362967,328.295481 655.541228,327.256138 L655.805913,325.712907 C655.848195,325.46638 655.710552,325.042779 655.531449,324.868197 L654.410227,323.775275 C653.655051,323.03916 653.988805,322.012172 655.032364,321.860534 L656.581856,321.635379 C656.829383,321.599411 657.189718,321.337605 657.300409,321.11332 L657.993363,319.709242 C658.460087,318.763555 659.539947,318.763617 660.006641,319.709242 L660.699595,321.11332 C660.810292,321.337617 661.170635,321.599414 661.418148,321.635379 L662.96764,321.860534 C664.011267,322.012182 664.344904,323.039208 663.589777,323.775275 L662.468555,324.868197 C662.289442,325.042788 662.151811,325.466394 662.194091,325.712907 L662.458776,327.256138 C662.637049,328.295548 661.763388,328.930224 660.83,328.439513 L659.444093,327.710898 Z" id="Shape"></path>
        </g>
    </g>
</svg>