<svg width="1705" height="338" viewBox="0 0 1705 338" xmlns="http://www.w3.org/2000/svg" xmlns:xlink="http://www.w3.org/1999/xlink"><defs><path id="a" d="M0 0h1776.306v355.963H0z"/></defs><g transform="translate(-34 -18)" fill="none" fill-rule="evenodd"><mask id="b" fill="#fff"><use xlink:href="#a"/></mask><path fill="#EEE" mask="url(#b)" d="M1122.657 352.617H-197.27v-77.993h10.1v-16.683h19.609V85.145h42.38V70.846h51.888v14.3h44.76v93.548h7.13v-50.053H20.58V113.35h40.007v15.292h40.402v76.867h9.901v-15.196h3.5v-8.638h8.449v8.638h3.498v15.196h29.707v-8.739h4.754v-5.165h24.955v-157.7h26.539v-7.15h18.615v-8.342h14.655v8.343h18.617v7.148h30.894v148.564h55.454v19.864H363.6v11.518h38.816v-36.546h3.563v-10.326l15.448-6.707h30.499v-44.935h7.922v-21.85h29.708v-15.49h3.565V61.313h5.94V47.412h24.16v13.9h5.942v16.684h3.565v15.49h10.3v21.85h5.147v94.538h7.132v19.863h15.447v34.947h58.862V114.506h21.266V90.061h47.852v23.111h26.584V257.14l5.209.007h9.9v-25.42h34.065v-24.233h5.149V190.81h15.449v-17.876h3.76v-10.678h21.985v10.678h3.762v17.876h32.676v16.684h13.075v31.779h5.544V190.81h3.565v-39.723h7.436l1.871-8.443h.94v-3.374h1.633v-5.86h3.964v5.86h1.633v3.374h.94l1.87 8.443h7.042v25.424h79.22v7.149h25.745v81.065h9.11V62.901h52.68v100.1h7.922v45.684h7.13v58.39h14.149v-9.134h19.607V85.145h42.381V70.846h51.889v14.3h44.757v93.548h7.13v-50.053h41.986V113.35h40.007v15.292h40.402v76.867h9.9v-15.196h3.498v-8.638h8.451v8.638h3.5v15.196h29.706v-8.739h4.754v-5.165h24.953v-157.7h26.54v-7.15h18.616v-8.342h14.655v8.343h18.617v7.148h30.894v148.564h55.454v19.864h13.071v11.518h38.818v-36.546h3.563v-10.326l15.447-6.707h30.5v-44.935h7.921v-21.85h29.707v-15.49h3.565V61.313h5.941V47.412h24.162v13.9h5.94v16.684h3.566v15.49h10.3v21.85h5.147v94.538h7.131v19.863h15.447v34.947h58.863v84.868z"/><path fill="#EEE" mask="url(#b)" d="M0 185.872h1810.27v180.044H0z"/></g></svg>