<svg xmlns="http://www.w3.org/2000/svg" width="128" height="233" viewBox="0 0 128 233">
    <g fill="none" fill-rule="nonzero">
        <path fill="#754F35" d="M104.108 22.533c1.782 2.398 3.34 4.906 4.343 7.74 7.35 20.386 5.569 43.17 3.453 64.102-1.448 13.736-3.453 27.58-6.349 41.099v.109H18.91c-2.228-10.793-3.787-21.694-5.012-32.596-2.227-19.732-3.787-40.01-.223-59.632 1.114-5.996 2.673-12.1 5.68-17.66 4.678-8.613 15.703-14.718 26.06-17.77 20.159-5.67 46.887-.655 58.693 14.608z"/>
        <path fill="#5A3111" d="M105.444 136.564H18.13l-.111-.763c-2.005-9.594-3.564-20.06-5.012-32.705-2.227-19.405-3.787-40.01-.223-59.96.891-5.123 2.339-11.773 5.791-17.987 4.233-7.74 14.256-14.499 26.73-18.097 10.023-2.834 22.05-3.161 32.965-.654 11.582 2.617 21.049 8.177 26.729 15.48 1.893 2.508 3.452 5.233 4.454 8.068 7.24 20.059 5.792 41.971 3.564 64.538-1.559 14.826-3.564 28.344-6.348 41.208l-.223.763-1.002.109zm-85.643-1.962h84.864c2.672-12.646 4.677-25.837 6.236-40.336 2.228-22.24 3.675-43.934-3.452-63.666-1.003-2.616-2.339-5.233-4.12-7.522-12.14-15.48-39.315-19.405-57.58-14.172-9.243 2.725-20.714 8.612-25.503 17.115-3.23 5.887-4.677 12.428-5.568 17.334-3.453 19.623-1.894 40.227.222 59.414 1.448 12.319 3.007 22.457 4.9 31.833z"/>
        <path fill="#FFE1AD" d="M62.61 119.933c-10.705 0-21.628-6.669-27.418-15.197-4.369-6.45-5.243-14.322-5.898-21.866-1.31-13.994-3.605-36.735 6.117-48.652 10.158-12.463 27.307-11.042 27.307-11.042s17.15-1.421 27.308 11.042c5.462 6.779 6.117 17.275 6.554 25.474.546 10.168.218 20.664-1.42 30.722-1.31 8.31-4.37 14.432-10.705 20.226-6.007 5.357-13.653 9.293-21.846 9.293z"/>
        <path fill="#5A3111" d="M62.61 120.917c-10.487 0-21.847-6.231-28.292-15.634-4.587-6.778-5.461-14.978-6.116-22.303v-.328c-1.311-13.776-3.496-36.954 6.335-49.09 10.05-12.463 26.652-11.48 28.072-11.48 1.53-.109 18.023-.983 28.073 11.48 5.68 6.997 6.335 17.603 6.772 26.13.655 10.715.11 21.101-1.42 30.94-1.42 8.747-4.697 14.98-11.032 20.774-6.664 6.122-14.637 9.511-22.393 9.511zm-1.53-96.866c-4.26 0-17.04.874-25.014 10.714-9.394 11.589-7.21 34.111-5.898 47.668v.328c.655 7.107 1.42 15.088 5.789 21.429 6.008 8.856 16.712 14.76 26.652 14.76 7.319 0 14.746-3.171 21.082-9.075 5.898-5.467 9.066-11.37 10.377-19.57a140.524 140.524 0 0 0 1.42-30.503c-.437-8.2-1.093-18.477-6.336-24.928C79.54 22.957 62.828 24.16 62.718 24.16H62.5c0-.11-.546-.11-1.42-.11z"/>
        <path fill="#FFE1AD" d="M73.561 115.75l-.112 14.044 36.516 2.894c-1.91 1.93-5.73 96.374-5.73 96.374.337-.643-83.033.857-83.033.857L13 133.01l35.056-3.108-.112-14.258c12.808 5.467 25.617.107 25.617.107z"/>
        <path fill="#753016" d="M48.28 116.5l.113 3.431s11.011 6.754 25.393.215l-.225-3.752s-11.348 4.502-25.28.107z" opacity=".2"/>
        <path fill="#5A3111" d="M21.485 230c-.558 0-1.004-.426-1.004-.853L12 133.727c0-.533.335-.959.893-1.066l34.594-3.411-.112-13.22c0-.32.223-.64.446-.853.335-.214.67-.214 1.005-.107 12.052 5.118 24.438.107 24.55 0 .335-.107.67-.107 1.004.107.335.213.447.533.447.853l-.112 13.006 35.375 2.772c.558 0 1.004.534.893 1.067l-5.691 95.952c0 .533-.447.96-1.005.96L21.485 230zm-7.365-95.526l8.37 93.607 80.904-.32 5.58-94.034-35.263-2.771c-.558 0-.893-.427-.893-.96v-12.687c-3.57 1.173-13.28 3.625-23.323 0l.112 12.687c0 .533-.447.96-.893.96l-34.594 3.518z"/>
        <path fill="#FFE1AD" d="M14.337 135L23 234l-22-.11s7.41-85.14 8.207-91.63c.684-6.49 5.13-7.26 5.13-7.26zM128 232l-23-.11 5.836-98.89s5.492 2.297 6.293 8.751C117.816 148.206 128 232 128 232z"/>
        <path fill="#5A3111" d="M21.917 234l-20.9-.11c-.325 0-.541-.11-.758-.33-.217-.22-.325-.44-.217-.769.109-.88 7.04-85.174 7.797-91.658.758-7.144 5.523-8.023 5.74-8.133.325 0 .541 0 .758.22.216.22.325.44.433.77L23 232.9c0 .33-.108.55-.217.77-.324.22-.541.329-.866.329zM2.1 231.802l18.734.11-8.013-96.494c-1.083.66-2.6 2.198-3.032 5.825-.65 6.154-6.823 80.668-7.689 90.559zM127.015 234l-21.988-.11c-.328 0-.547-.11-.765-.33-.22-.22-.328-.44-.22-.77l5.908-98.838c0-.33.219-.66.438-.77.218-.22.547-.22.875-.11.219.11 5.47 2.09 6.235 9.125.657 6.377 10.393 89.824 10.502 90.704 0 .33-.11.55-.219.77-.219.22-.547.329-.766.329zm-20.894-2.089l19.8.11c-1.203-10.115-9.735-83.557-10.392-89.604-.437-3.848-2.406-5.827-3.72-6.706l-5.688 96.2z"/>
        <path fill="#753016" d="M68.794 81.6c0 .84-.213 1.56-.531 2.28-.957 1.68-2.87 2.88-5.1 2.88-2.338 0-4.25-1.2-5.207-3-.318-.6-.531-1.32-.531-2.04h.319s0 .12.106.12c.85 1.8 2.869 3 5.206 3 2.232 0 4.144-1.2 5.1-2.88.106-.12.106-.24.106-.36h.532z" opacity=".2"/>
        <path fill="#FFE1AD" d="M28 70.22v13.56c0 1.285-1 2.22-2.111 2.22H24.11C22.89 86 22 84.948 22 83.78V70.22c0-1.285 1-2.22 2.111-2.22h1.778C27.11 68 28 68.935 28 70.22z"/>
        <path fill="#5A3111" d="M24.278 87h-1.556C21.167 87 20 85.572 20 83.925v-12.85C20 69.318 21.264 68 22.722 68h1.556C25.833 68 27 69.428 27 71.075v12.74C27 85.572 25.833 87 24.278 87zm-1.556-17.023c-.486 0-.972.44-.972 1.098v12.74c0 .659.389 1.098.972 1.098h1.556c.583 0 .972-.439.972-1.098v-12.74c0-.549-.389-1.098-.972-1.098h-1.556z"/>
        <path fill="#FFE1AD" d="M103 71.8v13.92c0 1.32-1.038 2.28-2.192 2.28h-1.846c-.808 0-1.616-.48-1.962-1.2V72.28c0-1.32 1.038-2.28 2.192-2.28h1.846c.808 0 1.5.48 1.962 1.2-.115.24 0 .36 0 .6z"/>
        <path fill="#5A3111" d="M101.312 87h-1.63c-1.245 0-2.299-.994-2.586-2.43 0-.221-.096-.442-.096-.663V71.093C97 69.326 98.246 68 99.683 68h1.533c.958 0 1.916.663 2.396 1.657.191.442.383.994.383 1.546v12.814c.096 1.657-1.15 2.983-2.683 2.983zm-1.533-17.012c-.48 0-.958.442-.958 1.105v13.034c.095.443.479.885.862.885h1.533c.575 0 .958-.442.958-1.105V71.093c0-.22 0-.331-.096-.552-.191-.332-.479-.553-.862-.553H99.78z"/>
        <ellipse cx="5.5" cy="5.838" fill="#E888B8" opacity=".13" rx="5.3" ry="5.631" transform="translate(36 79)"/>
        <ellipse cx="5.5" cy="5.5" fill="#E888B8" opacity=".13" rx="5.3" ry="5.466" transform="translate(77 79)"/>
        <path fill="#5A3111" d="M63.052 86c-2.295 0-4.382-1.035-5.426-2.76-.417-.689-.626-1.379-.626-2.183 0-.575.313-.92.835-1.035.522-.115.939.23 1.043.805 0 .115.835 2.874 4.07 2.874 3.339 0 4.07-2.874 4.174-2.874.104-.46.626-.805 1.043-.805.522.115.835.575.835 1.035 0 .804-.209 1.61-.73 2.299-.94 1.61-3.027 2.644-5.218 2.644z"/>
        <path fill="#875E3D" d="M57.074 59.333c.463-.889.115-1.777 0-1.777 0-.112-.116-.223-.232-.223C54.295 56 50.705 55 47.58 54.667c-1.042-.111-2.084-.111-3.01.11-2.664.445-4.632 1.779-5.79 2.779-1.158 1-1.737 2-1.853 2.222-.115.11-.115.222-.115.333 0 .222.231.445.463.333.115 0 .231 0 .231-.11.81-.778 3.59-1.89 6.369-2.334.926-.111 1.852-.222 2.779-.222 2.431.11 8.684 2.555 8.8 2.555h.231c.116 0 .927-.333 1.39-1z"/>
        <path fill="#5A3111" d="M37.39 60.889c-.464 0-.927-.333-.927-.778 0-.222 0-.444.116-.667.116-.11.81-1.222 1.968-2.222 1.274-1.11 3.242-2.444 6.021-3 1.043-.222 2.085-.222 3.243-.11 3.126.332 6.831 1.332 9.378 2.666.232.11.348.333.464.555 0 0 .463 1.223-.116 2.223-.58.888-1.505 1.222-1.621 1.222H55.8c-.232 0-.347 0-.579-.111-2.316-.89-6.832-2.556-8.568-2.556-.81 0-1.737 0-2.664.222-2.663.445-5.326 1.556-6.02 2.223a.904.904 0 0 1-.58.222c.116.11 0 .11 0 .11zm9.031-3.778h.347c2.316.111 8.106 2.333 8.916 2.667.232-.111.695-.334.927-.778.347-.667 0-1.444 0-1.444-2.432-1.223-6.022-2.223-9.032-2.556-1.042-.111-1.968-.111-2.895.111-2.547.445-4.4 1.667-5.558 2.667-.694.666-1.273 1.333-1.505 1.666 1.158-.888 3.821-1.777 6.253-2.222.926 0 1.852-.11 2.547-.11z"/>
        <path fill="#875E3D" d="M71.852 60.333h.228c.114 0 6.274-2.555 8.67-2.555.798 0 1.71 0 2.737.222 2.738.444 5.476 1.556 6.274 2.333.115.111.115.111.229.111.228 0 .456-.11.456-.333 0-.111 0-.222-.114-.333-.114-.222-.685-1.111-1.825-2.222-1.141-1-3.08-2.334-5.704-2.778-.913-.111-1.94-.222-2.966-.111-3.08.333-6.616 1.333-9.126 2.666-.114 0-.228.111-.228.223 0 0-.342 1 0 1.777.57.667 1.369 1 1.369 1z"/>
        <path fill="#5A3111" d="M89.99 60.889h-.114c-.229 0-.343-.111-.57-.222-.685-.667-3.423-1.778-5.933-2.223-.912-.11-1.825-.222-2.623-.222-1.826 0-6.16 1.667-8.442 2.556-.228.11-.342.11-.57.11h-.114s-1.027-.332-1.597-1.221c-.457-1-.228-2.111-.114-2.223.114-.222.228-.444.456-.555 2.51-1.333 6.16-2.333 9.24-2.667 1.027-.11 2.167-.11 3.08.111 2.738.445 4.791 1.89 5.932 3 1.14 1.111 1.825 2.111 1.939 2.334.114.222.228.444.114.666.228.223-.114.556-.684.556zm-19.05-3.222s-.229.777.113 1.333c.228.333.685.667.913.778.913-.334 6.502-2.556 8.784-2.667.912 0 1.825 0 2.851.222 2.282.334 4.906 1.334 6.16 2.223-.342-.334-.798-1-1.482-1.667-1.141-1-2.966-2.222-5.476-2.667-.913-.11-1.825-.222-2.852-.11-3.08.332-6.502 1.332-9.012 2.555z"/>
        <g fill="#5A3111" transform="translate(71 65)">
            <ellipse cx="5.9" cy="5.742" rx="3" ry="3.25"/>
            <path d="M10.1 2.275c-.2-.217-.5-.433-.8-.65L8.7 1.3c-.3-.108-.6-.325-1-.433L7 .758C6.5.65 5.9.65 5.3.65 2.1.975 1.1 3.033.6 5.092L1 5.2c.5-.65 1.6-1.192 2.5-1.625 0 0 3-1.733 5.8 1.192l.6.433c.4.217.8.217 1.2 0 1.1-.65 1.5-3.142 1.5-3.25 0-.217-.1-.433-.2-.433-.1-.109-.3 0-.4.216-.4.867-.7 1.192-.9 1.3-.1 0-.2 0-.4-.108l-.6-.65z"/>
        </g>
        <g fill="#5A3111" transform="translate(39 65)">
            <circle cx="7.15" cy="5.742" r="3.25"/>
            <path d="M2.058 2.708c-.108.109-.325.109-.433.109-.325-.109-.65-.434-.975-1.3C.542 1.3.433 1.3.217 1.3.108 1.408 0 1.517 0 1.733c0 .109.433 2.6 1.625 3.25.433.217.867.217 1.3 0l.65-.433c3.033-2.925 6.283-1.192 6.283-1.192.975.434 2.059.975 2.709 1.625L13 4.875C12.458 2.817 11.375.758 7.908.433c-.65-.108-1.3 0-1.841.109l-.65.216c-.434.109-.759.217-1.084.434l-.65.325c-.325.216-.65.433-.866.65l-.759.541z"/>
        </g>
        <path fill="#754F35" d="M20.576 60c44.386-4.881 62.368-30.35 62.368-30.35s5.008 12.522 19.69 21.33c0 0 11.836-20.163-8.878-35.232-16.958-12.204-44.842-11.673-61.23 1.804C16.023 31.03 20.576 60 20.576 60z"/>
        <path fill="#5A3111" d="M24.014 62.891c-.554 0-.997-.327-.997-.872-.11-.545.333-1.09.887-1.09 42.22-5.448 57.07-29.858 57.291-30.185L82.303 29l.776 1.962c0 .109 4.654 11.442 18.506 21.25.443.326.554.98.222 1.416-.333.436-.998.545-1.44.218-11.304-8.064-16.623-16.89-18.396-20.487C77.87 38.917 61.248 58.205 24.236 63c-.11-.109-.222-.109-.222-.109z"/>
        <path fill="#FF6275" d="M108.571 133.658l-.549 8.953-.66 11.385-.549 9.175-1.209 19.896-.22 4.2-.659 10.059-.55 9.174-.659 10.059-.549 9.174-.44 6.632-81.648.332-.66-6.964-.878-9.174-.99-10.059-.878-9.174-.99-10.059-.879-9.174-4.285-43.882 5.714-.885h2.088c.33 1.437.989 4.974 1.978 9.175.879 3.647 1.868 7.848 3.077 11.385 1.319 4.2 2.857 7.627 4.176 8.29.55.331 2.088.553 4.285.884 11.319 1.437 40.77 2.321 55.055 0 3.517-.553 6.154-1.326 7.363-2.321 1.758-1.437 2.967-3.98 3.846-6.853.99-3.537 1.319-7.738 1.429-11.385.11-4.09-.11-7.627-.22-9.175 0-.442-.11-.773-.11-.773l6.703.773 1.868.332z"/>
        <path fill="#5A3111" d="M21.099 233.913c-.55 0-.99-.443-.99-.885l-9.45-98.486c0-.552.33-.995.88-1.105l5.604-.774H19.45c.44 0 .879.332.989.774.33 1.658.989 5.085 1.868 9.064.989 4.532 2.088 8.29 2.967 11.385 2.088 6.41 3.406 7.516 3.736 7.737.22.11.989.332 3.956.774 10.55 1.326 40.11 2.321 54.835 0 4.396-.663 6.154-1.548 6.923-2.1 1.429-1.216 2.638-3.316 3.517-6.3.769-2.985 1.318-6.743 1.428-11.165.11-4.09-.11-7.737-.22-9.063 0-.443-.11-.664-.11-.664 0-.331.11-.552.33-.773.22-.221.55-.332.77-.332l8.351.884c.55.11.99.553.88 1.106l-5.935 98.596c0 .553-.44.995-.989.995l-81.648.332zm-8.352-98.708l9.34 96.607 79.781-.331 5.824-96.939-6.154-.663c.11 1.88.33 5.085.22 8.732-.11 4.643-.66 8.511-1.538 11.717-.99 3.426-2.308 5.858-4.176 7.406-1.319 1.105-3.846 1.879-7.802 2.542-14.835 2.321-44.726 1.326-55.385 0-3.187-.442-4.176-.774-4.615-.995-.99-.442-2.528-1.879-4.726-8.843-.989-3.095-1.978-6.963-3.076-11.495-.77-3.427-1.429-6.522-1.759-8.4h-1.099l-4.835.662z"/>
        <g transform="translate(20 81)">
            <ellipse cx="4.388" cy="3.277" fill="#0EDC84" rx="2.925" ry="2.482"/>
            <path fill="#5A3111" d="M4.388 6.714C2.138 6.714.45 5.186.45 3.373c0-1.91 1.8-3.341 3.938-3.341 2.25 0 3.937 1.527 3.937 3.34 0 1.814-1.8 3.342-3.937 3.342zm0-5.06c-1.013 0-1.913.764-1.913 1.623 0 .86.9 1.623 1.913 1.623C5.4 4.9 6.3 4.136 6.3 3.277s-.9-1.622-1.912-1.622z"/>
        </g>
        <g transform="translate(97 81)">
            <circle cx="3.373" cy="3.277" r="2.482" fill="#0EDC84"/>
            <path fill="#5A3111" d="M3.373 6.714A3.32 3.32 0 0 1 .032 3.373 3.32 3.32 0 0 1 3.372.032a3.32 3.32 0 0 1 3.342 3.34c.095 1.814-1.432 3.342-3.341 3.342zm0-5.06c-.86 0-1.623.764-1.623 1.623 0 .86.764 1.623 1.623 1.623s1.622-.764 1.622-1.623-.668-1.622-1.622-1.622z"/>
        </g>
        <path fill="#FCFBFA" d="M52.262 93.988h20.116s1.946 9.636-10.275 9.636c-11.355 0-9.841-9.636-9.841-9.636z"/>
        <path fill="#5A3111" d="M62.103 104.576c-3.893 0-6.813-1.058-8.652-3.176-2.703-3.176-2.163-7.306-2.163-7.518.109-.423.541-.847.974-.847h20.116c.432 0 .865.318.973.741 0 .212.757 4.236-1.838 7.306-1.947 2.33-5.084 3.494-9.41 3.494zm-8.868-9.635c0 1.165.216 3.388 1.73 5.188 1.515 1.695 3.894 2.542 7.138 2.542 3.678 0 6.381-.953 7.895-2.753 1.406-1.694 1.515-3.812 1.515-4.977H53.235zM19 63l-1-7.286C18 31.65 37.778 12 62 12s44 19.65 44 43.714v6.844h-7.111v-6.844C98.778 35.513 82.333 19.064 62 19.064c-20.222 0-36.667 16.228-36.778 36.32l.89 6.512L19 63z"/>
        <path fill="#BBBDBF" d="M20.99 60L20 53.301C20 31.044 38.357 13 61 13s41 18.044 41 40.301V60h-1.979v-6.699c0-21.069-17.477-38.248-38.911-38.248S22.198 32.233 22.198 53.3l.88 6.591-2.089.108z"/>
        <g>
            <path fill="#BBBDBF" d="M25.438 89.514c-2.125.229-4.038-1.485-4.25-3.771L19.38 64.829c-.212-2.286 1.382-4.343 3.507-4.572 2.125-.228 4.037 1.486 4.25 3.772l1.806 20.914c.212 2.286-1.381 4.343-3.506 4.571z"/>
            <path fill="#5A3111" d="M25.012 90.543c-2.443 0-4.675-2.057-4.887-4.8l-1.806-20.914c-.106-1.372.319-2.743 1.062-3.886.85-1.029 2.019-1.714 3.294-1.829 1.275-.114 2.55.343 3.612 1.143a5.52 5.52 0 0 1 1.7 3.543l1.807 20.914c.106 1.372-.319 2.743-1.063 3.886-.85 1.029-2.018 1.714-3.293 1.829-.107.114-.213.114-.425.114zm-1.7-29.257h-.318C21.4 61.4 20.23 63 20.337 64.714l1.807 20.915c.106 1.714 1.593 2.971 3.187 2.857 1.594-.115 2.763-1.715 2.656-3.429l-1.806-20.914c-.106-1.6-1.381-2.857-2.869-2.857z"/>
        </g>
        <g>
            <path fill="#BBBDBF" d="M99.675 89.514c1.948.115 3.604-1.714 3.702-4l.681-20.685c.098-2.286-1.46-4.229-3.409-4.343-1.948-.115-3.604 1.714-3.7 4l-.683 20.685c-.097 2.286 1.364 4.343 3.41 4.343z"/>
            <path fill="#5A3111" d="M99.773 90.657h-.195c-1.169-.114-2.338-.686-3.117-1.714-.78-1.029-1.266-2.4-1.169-3.772l.682-20.685c.097-1.372.584-2.743 1.461-3.657.877-.915 2.046-1.486 3.214-1.372 2.435.114 4.383 2.629 4.286 5.486l-.682 20.686c-.097 1.371-.584 2.742-1.46 3.657-.78.8-1.851 1.371-3.02 1.371zm.779-29.143c-.682 0-1.266.343-1.85.8-.488.572-.877 1.372-.877 2.172l-.682 20.8c0 .8.195 1.6.682 2.285.487.572 1.169 1.029 1.85 1.029.682 0 1.364-.229 1.948-.8.487-.571.877-1.371.877-2.171l.682-20.915c.097-1.714-1.072-3.2-2.533-3.314l-.097.114z"/>
        </g>
        <path fill="#5A3111" d="M71.525 103a1.53 1.53 0 0 1-1.513-1.335c-.108-.89.54-1.558 1.297-1.67l13.508-1.558c.324 0 .648-.222.865-.445l12.751-12.575c.54-.556 1.513-.556 2.162 0a1.73 1.73 0 0 1 0 2.226l-12.752 12.575c-.757.668-1.621 1.113-2.594 1.224L71.741 103h-.216z"/>
        <g transform="translate(65 92)">
            <ellipse cx="6.244" cy="5.962" fill="#404041" rx="4.75" ry="4.398"/>
            <path fill="#5A3111" d="M6.244 11.826C2.761 11.826.017 9.187.017 6.06c0-3.226 2.85-5.767 6.227-5.767 3.484 0 6.228 2.64 6.228 5.767 0 3.127-2.85 5.766-6.228 5.766zm0-8.894C4.45 2.932 2.867 4.3 2.867 6.06c0 1.661 1.477 3.127 3.377 3.127 1.795 0 3.378-1.368 3.378-3.127C9.517 4.3 8.04 2.932 6.244 2.932z"/>
        </g>
    </g>
</svg>
