<svg width="69" height="68" viewBox="0 0 69 68" xmlns="http://www.w3.org/2000/svg"><title>icon requests</title><g transform="translate(3 3)" fill="none" fill-rule="evenodd" opacity=".053"><ellipse fill="#000" cx="42.636" cy="27.214" rx="4.2" ry="4.201"/><ellipse fill="#000" cx="21.314" cy="27.214" rx="4.2" ry="4.201"/><path d="M31.036 52.54c.738.025 1.48.01 2.224-.05 5.797-.465 11.252-3.603 14.591-8.396l-2.813-1.961c-2.76 3.96-7.265 6.554-12.052 6.938-5.786.465-11.455-2.26-14.735-6.999l-2.629 2.22c3.564 4.965 9.322 8.035 15.414 8.248z" stroke="#000" stroke-width=".842" fill="#000"/><path d="M57.217 62.317a4.847 4.847 0 0 0 4.845-4.85V25.032c0-5.377-3.818-6.693-3.818-6.693s4.773-2.497 4.773-9.562c0-5.833-4.592-8.74-9.548-8.604-3.074.083-14.269.957-21.96.957-7.692 0-18.887-.874-21.96-.957C4.592.037 0 2.943 0 8.777c0 7.065 4.773 9.562 4.773 9.562S.955 19.655.955 25.032v32.433c0 2.68 2.17 4.852 4.845 4.852h51.417z" stroke="#000" stroke-width="4.445" stroke-linecap="round" stroke-linejoin="round"/></g></svg>