<?xml version="1.0" encoding="UTF-8"?>
<svg width="375px" height="35px" viewBox="0 0 375 35" version="1.1" xmlns="http://www.w3.org/2000/svg" xmlns:xlink="http://www.w3.org/1999/xlink">
    <!-- Generator: Sketch 49.1 (51147) - http://www.bohemiancoding.com/sketch -->
    <title>trusted-flag</title>
    <desc>Created with Sketch.</desc>
    <defs></defs>
    <g id="Page-1" stroke="none" stroke-width="1" fill="none" fill-rule="evenodd">
        <g id="trusted-flag" transform="translate(-1.000000, 0.000000)">
            <path d="M1.687,3.162 C0.337,1.416 1.029,1.02483236e-15 3.25,1.02483236e-15 L371.991,1.02483236e-15 C374.201503,-0.00165980136 375.995586,1.78750051 376,3.998 L376,34.148 C376,34.482 376,34.148 376,34.148 C376,33.514 374.215,33 371.992,33 L3.252,33 C1.037,33 0.341,31.579 1.686,29.838 L11.994,16.5 L1.687,3.162 Z" id="Shape" fill="#2C85E5" fill-rule="nonzero"></path>
            <g id="Group-4" transform="translate(17.000000, 5.000000)">
                <path d="M19.9223429,4.82856805 L19.9223429,4.82844222 C19.9057636,4.41654481 19.6055966,4.07989015 19.2173876,4.03776427 L19.2172923,4.03776427 C16.6199584,3.75596887 14.3870601,2.73203841 12.9712182,1.92268818 C11.4205024,1.03623301 10.4805065,0.20458677 10.4718833,0.196911507 L10.4709305,0.196081069 C10.1782909,-0.065154698 9.74999139,-0.0653811812 9.45706597,0.195527443 L9.45625606,0.196257222 C9.44691828,0.204561605 8.50692234,1.03623301 6.95623039,1.92266301 C5.54038847,2.73201324 3.30751402,3.7559437 0.710180036,4.03773911 L0.710037111,4.03776427 C0.321828153,4.07986498 0.0216850054,4.41651965 0.00510566961,4.82841706 L0.00510566961,4.82854288 C-6.34623697e-05,4.95698401 -0.108686697,8.01687244 1.00698826,11.7221121 C1.66532605,13.9086059 2.6160652,15.8676854 3.83278835,17.5451457 C5.36063607,19.6514644 7.30939883,21.3118126 9.62495557,22.4800129 C9.83920061,22.5881208 10.0882241,22.5881208 10.3024692,22.4800129 C12.6180259,21.3118126 14.5668125,19.6515399 16.0946364,17.5451457 C17.3113834,15.8677357 18.2621225,13.9085807 18.9204603,11.7221373 C20.0361114,8.01692277 19.927512,4.95703434 19.9223429,4.82856805" id="Path" fill="#FFFFFF"></path>
                <path d="M14.1692951,7.44765975 C14.0040253,7.27120971 13.7360408,7.2711827 13.570771,7.44765975 L12.7048696,8.37213797 L8.66169391,12.6888553 C8.49642412,12.8653053 8.22843958,12.8653053 8.06316979,12.6888553 L6.16164356,10.6586937 C5.99637377,10.4822167 5.72838922,10.4822167 5.56311943,10.6586937 L5.2719045,10.9696089 L4.98066426,11.2805781 C4.81539447,11.4570282 4.81539447,11.7431414 4.98066426,11.9195915 L8.06316979,15.2105967 C8.22843958,15.3870467 8.49642412,15.3870467 8.66169391,15.2105967 L14.7517756,8.70853047 C14.9170454,8.53208043 14.9170454,8.24599416 14.7517756,8.06954413 L14.1692951,7.44765975 Z" id="Fill-4" fill="#3A87E1"></path>
            </g>
        </g>
    </g>
</svg>