<svg width="375" height="35" viewBox="0 0 375 35" xmlns="http://www.w3.org/2000/svg"><g fill="none" fill-rule="evenodd"><path d="M.687 3.162C-.663 1.416.029 0 2.25 0h368.741A4.006 4.006 0 0 1 375 3.998v30.15c0 .334 0 0 0 0 0-.634-1.785-1.148-4.008-1.148H2.252C.037 33-.659 31.579.686 29.838L10.994 16.5.687 3.162z" fill="#0EDC84"/><path d="M30.56 13.817l-7.912 8.7a1.407 1.407 0 0 1-2.124 0l-4.084-4.492c-.587-.644-.587-1.69 0-2.334a1.407 1.407 0 0 1 2.122 0l3.024 3.325 6.851-7.533a1.407 1.407 0 0 1 2.123 0c.586.645.586 1.69 0 2.334z" fill="#FFF"/></g></svg>